<?xml version="1.0" encoding="UTF-8" standalone="no"?>
<svg xmlns="http://www.w3.org/2000/svg" width="600" height="600" viewBox="0 0 600 600">
  <rect x="0" y="0" width="600" height="600" fill="#000000"/>
  <path d="M 475.00 503.00 L 473.00 503.00 L 472.00 504.00 L 472.00 507.00 Z M 485.00 474.00 L 484.00 476.00 L 485.00 478.00 L 481.00 483.00 L 482.00 485.00 L 480.00 488.00 L 480.00 490.00 L 482.00 490.00 L 483.00 491.00 L 481.00 494.00 L 482.00 495.00 L 483.00 495.00 L 482.00 493.00 L 483.00 492.00 L 484.00 493.00 L 484.00 491.00 L 485.00 490.00 L 485.00 488.00 L 484.00 487.00 L 485.00 486.00 L 484.00 485.00 L 485.00 483.00 Z M 482.00 464.00 L 482.00 469.00 L 483.00 470.00 L 483.00 472.00 L 482.00 473.00 L 482.00 477.00 L 482.00 473.00 L 484.00 471.00 L 483.00 470.00 L 483.00 466.00 Z M 353.00 402.00 L 356.00 417.00 L 356.00 460.00 L 357.00 461.00 L 356.00 462.00 L 357.00 488.00 L 353.00 510.00 L 390.00 509.00 L 394.00 508.00 L 396.00 506.00 L 398.00 507.00 L 406.00 504.00 L 413.00 497.00 L 417.00 490.00 L 421.00 473.00 L 421.00 463.00 L 422.00 462.00 L 421.00 461.00 L 421.00 436.00 L 419.00 425.00 L 415.00 415.00 L 408.00 407.00 L 404.00 404.00 L 395.00 402.00 L 385.00 402.00 L 384.00 403.00 L 381.00 402.00 L 378.00 403.00 L 375.00 402.00 L 374.00 403.00 L 373.00 402.00 Z M 362.00 507.00 L 363.00 506.00 L 364.00 507.00 L 363.00 508.00 Z M 371.00 506.00 L 372.00 505.00 L 373.00 506.00 L 372.00 507.00 Z M 373.00 498.00 L 375.00 498.00 L 376.00 499.00 L 376.00 500.00 L 374.00 501.00 L 375.00 502.00 L 374.00 503.00 L 373.00 503.00 L 371.00 501.00 Z M 375.00 495.00 L 377.00 494.00 L 379.00 496.00 L 378.00 497.00 L 376.00 497.00 Z M 418.00 472.00 L 419.00 471.00 L 420.00 472.00 L 419.00 473.00 Z M 356.00 439.00 L 358.00 438.00 L 359.00 440.00 L 357.00 441.00 Z M 372.00 435.00 L 373.00 434.00 L 375.00 435.00 L 374.00 436.00 Z M 381.00 421.00 L 389.00 421.00 L 390.00 422.00 L 392.00 422.00 L 396.00 427.00 L 397.00 433.00 L 398.00 434.00 L 398.00 465.00 L 397.00 466.00 L 398.00 468.00 L 397.00 469.00 L 397.00 479.00 L 396.00 480.00 L 395.00 484.00 L 391.00 488.00 L 389.00 489.00 L 386.00 489.00 L 385.00 490.00 L 382.00 490.00 L 380.00 488.00 L 380.00 422.00 Z M 387.00 409.00 L 388.00 408.00 L 389.00 409.00 L 388.00 410.00 Z M 381.00 408.00 L 382.00 407.00 L 383.00 408.00 L 382.00 409.00 Z M 276.00 402.00 L 279.00 416.00 L 278.00 499.00 L 274.00 510.00 L 301.00 509.00 L 298.00 498.00 L 299.00 455.00 L 320.00 509.00 L 342.00 509.00 L 341.00 451.00 L 337.00 449.00 L 341.00 448.00 L 341.00 418.00 L 345.00 402.00 L 320.00 403.00 L 324.00 414.00 L 322.00 455.00 L 305.00 402.00 Z M 326.00 504.00 L 330.00 502.00 L 332.00 504.00 L 332.00 506.00 L 330.00 507.00 L 329.00 505.00 L 327.00 505.00 Z M 330.00 500.00 L 332.00 499.00 L 333.00 501.00 L 332.00 502.00 Z M 334.00 493.00 L 335.00 492.00 L 336.00 493.00 L 335.00 494.00 Z M 337.00 486.00 L 338.00 485.00 L 340.00 486.00 L 339.00 487.00 Z M 322.00 465.00 L 323.00 464.00 L 324.00 465.00 L 323.00 466.00 Z M 310.00 464.00 L 311.00 463.00 L 312.00 464.00 L 311.00 465.00 Z M 307.00 463.00 L 308.00 462.00 L 309.00 463.00 L 308.00 464.00 Z M 330.00 457.00 L 331.00 458.00 L 329.00 461.00 L 327.00 459.00 L 329.00 457.00 Z M 314.00 447.00 L 315.00 446.00 L 316.00 448.00 L 315.00 449.00 Z M 336.00 446.00 L 338.00 445.00 L 339.00 447.00 L 337.00 448.00 Z M 315.00 445.00 L 316.00 444.00 L 317.00 445.00 L 316.00 446.00 Z M 336.00 440.00 L 337.00 439.00 L 338.00 440.00 L 337.00 441.00 Z M 338.00 430.00 L 340.00 429.00 L 341.00 431.00 L 340.00 432.00 Z M 293.00 427.00 L 294.00 426.00 L 295.00 427.00 L 294.00 428.00 Z M 294.00 426.00 L 295.00 425.00 L 296.00 426.00 L 295.00 427.00 Z M 287.00 424.00 L 288.00 423.00 L 289.00 424.00 L 288.00 425.00 Z M 332.00 423.00 L 333.00 422.00 L 334.00 423.00 L 333.00 424.00 Z M 331.00 422.00 L 332.00 421.00 L 333.00 422.00 L 332.00 423.00 Z M 327.00 417.00 L 328.00 416.00 L 329.00 417.00 L 328.00 418.00 Z M 331.00 414.00 L 332.00 413.00 L 333.00 415.00 L 332.00 416.00 Z M 334.00 404.00 L 335.00 403.00 L 336.00 404.00 L 335.00 405.00 Z M 336.00 403.00 L 337.00 402.00 L 338.00 403.00 L 337.00 404.00 Z M 210.00 402.00 L 210.00 405.00 L 212.00 406.00 L 210.00 431.00 L 207.00 450.00 L 201.00 473.00 L 198.00 496.00 L 194.00 509.00 L 201.00 509.00 L 202.00 507.00 L 203.00 509.00 L 219.00 510.00 L 220.00 507.00 L 218.00 495.00 L 222.00 490.00 L 238.00 491.00 L 240.00 503.00 L 237.00 509.00 L 250.00 509.00 L 253.00 506.00 L 254.00 509.00 L 269.00 509.00 L 265.00 499.00 L 254.00 445.00 L 249.00 414.00 L 250.00 403.00 Z M 253.00 505.00 L 254.00 504.00 L 255.00 506.00 L 254.00 507.00 Z M 254.00 504.00 L 255.00 503.00 L 256.00 504.00 L 255.00 505.00 Z M 205.00 459.00 L 206.00 458.00 L 207.00 460.00 L 206.00 461.00 Z M 206.00 451.00 L 207.00 450.00 L 208.00 451.00 L 207.00 452.00 Z M 230.00 434.00 L 231.00 435.00 L 231.00 439.00 L 232.00 440.00 L 232.00 447.00 L 233.00 448.00 L 233.00 454.00 L 234.00 455.00 L 234.00 460.00 L 235.00 461.00 L 234.00 462.00 L 235.00 463.00 L 235.00 469.00 L 236.00 470.00 L 235.00 471.00 L 224.00 471.00 L 223.00 470.00 L 224.00 469.00 L 224.00 465.00 L 225.00 464.00 L 225.00 460.00 L 226.00 459.00 L 227.00 446.00 L 228.00 445.00 L 228.00 442.00 L 229.00 441.00 L 228.00 440.00 L 229.00 438.00 L 228.00 437.00 Z M 214.00 415.00 L 215.00 414.00 L 217.00 415.00 L 216.00 416.00 Z M 218.00 414.00 L 219.00 413.00 L 220.00 414.00 L 219.00 415.00 Z M 218.00 412.00 L 219.00 411.00 L 220.00 412.00 L 219.00 413.00 Z M 219.00 411.00 L 220.00 410.00 L 221.00 411.00 L 220.00 412.00 Z M 121.00 402.00 L 120.00 405.00 L 122.00 409.00 L 122.00 417.00 L 124.00 414.00 L 125.00 417.00 L 122.00 419.00 L 123.00 421.00 L 122.00 422.00 L 124.00 424.00 L 125.00 420.00 L 127.00 422.00 L 126.00 426.00 L 123.00 428.00 L 124.00 430.00 L 125.00 427.00 L 126.00 428.00 L 126.00 432.00 L 123.00 436.00 L 124.00 441.00 L 123.00 497.00 L 119.00 510.00 L 140.00 511.00 L 141.00 509.00 L 143.00 511.00 L 149.00 511.00 L 150.00 509.00 L 151.00 511.00 L 166.00 511.00 L 172.00 509.00 L 180.00 504.00 L 183.00 500.00 L 187.00 488.00 L 186.00 467.00 L 182.00 459.00 L 177.00 455.00 L 183.00 447.00 L 186.00 439.00 L 186.00 422.00 L 182.00 412.00 L 175.00 405.00 L 169.00 403.00 L 142.00 401.00 Z M 151.00 510.00 L 152.00 509.00 L 153.00 510.00 L 152.00 511.00 Z M 141.00 509.00 L 142.00 508.00 L 143.00 509.00 L 142.00 510.00 Z M 132.00 509.00 L 133.00 508.00 L 134.00 510.00 L 133.00 511.00 Z M 158.00 508.00 L 159.00 507.00 L 160.00 509.00 L 159.00 510.00 Z M 156.00 508.00 L 157.00 507.00 L 158.00 508.00 L 157.00 509.00 Z M 143.00 508.00 L 144.00 507.00 L 145.00 508.00 L 144.00 509.00 Z M 148.00 507.00 L 149.00 506.00 L 150.00 507.00 L 149.00 508.00 Z M 148.00 502.00 L 149.00 504.00 L 148.00 505.00 L 148.00 508.00 L 147.00 509.00 L 146.00 508.00 L 146.00 504.00 Z M 139.00 502.00 L 140.00 501.00 L 142.00 502.00 L 141.00 503.00 Z M 164.00 498.00 L 165.00 497.00 L 167.00 498.00 L 166.00 499.00 Z M 142.00 498.00 L 143.00 497.00 L 145.00 498.00 L 144.00 499.00 Z M 156.00 496.00 L 158.00 494.00 L 159.00 495.00 L 158.00 497.00 Z M 142.00 495.00 L 143.00 494.00 L 144.00 495.00 L 143.00 496.00 Z M 125.00 494.00 L 126.00 493.00 L 127.00 494.00 L 126.00 495.00 Z M 183.00 492.00 L 184.00 491.00 L 185.00 492.00 L 184.00 493.00 Z M 151.00 492.00 L 152.00 491.00 L 154.00 492.00 L 153.00 493.00 Z M 123.00 490.00 L 124.00 489.00 L 125.00 491.00 L 124.00 492.00 Z M 127.00 490.00 L 129.00 488.00 L 132.00 491.00 L 131.00 492.00 L 129.00 492.00 Z M 163.00 487.00 L 164.00 486.00 L 165.00 487.00 L 164.00 488.00 Z M 142.00 486.00 L 143.00 485.00 L 144.00 486.00 L 143.00 487.00 Z M 131.00 482.00 L 132.00 481.00 L 134.00 482.00 L 133.00 483.00 Z M 184.00 480.00 L 185.00 479.00 L 186.00 480.00 L 185.00 481.00 Z M 127.00 477.00 L 128.00 476.00 L 129.00 477.00 L 128.00 478.00 Z M 165.00 474.00 L 166.00 473.00 L 167.00 475.00 L 166.00 476.00 Z M 123.00 472.00 L 124.00 471.00 L 125.00 472.00 L 124.00 473.00 Z M 134.00 467.00 L 135.00 466.00 L 136.00 467.00 L 135.00 468.00 Z M 181.00 466.00 L 182.00 465.00 L 184.00 466.00 L 183.00 467.00 Z M 179.00 465.00 L 181.00 463.00 L 182.00 464.00 L 181.00 466.00 Z M 135.00 463.00 L 136.00 462.00 L 137.00 463.00 L 136.00 464.00 Z M 141.00 458.00 L 142.00 459.00 L 142.00 461.00 L 141.00 462.00 L 140.00 461.00 L 140.00 459.00 Z M 150.00 456.00 L 151.00 455.00 L 152.00 457.00 L 151.00 458.00 Z M 139.00 455.00 L 140.00 454.00 L 141.00 455.00 L 140.00 456.00 Z M 124.00 455.00 L 125.00 454.00 L 126.00 455.00 L 125.00 456.00 Z M 128.00 454.00 L 129.00 453.00 L 130.00 455.00 L 129.00 456.00 Z M 125.00 453.00 L 126.00 452.00 L 127.00 453.00 L 126.00 454.00 Z M 145.00 451.00 L 146.00 452.00 L 146.00 456.00 L 145.00 457.00 L 144.00 456.00 L 144.00 452.00 Z M 127.00 452.00 L 128.00 451.00 L 129.00 453.00 L 128.00 454.00 Z M 165.00 450.00 L 166.00 449.00 L 167.00 451.00 L 166.00 452.00 Z M 154.00 449.00 L 155.00 450.00 L 155.00 455.00 L 156.00 456.00 L 155.00 457.00 L 156.00 458.00 L 155.00 459.00 L 156.00 461.00 L 156.00 465.00 L 157.00 465.00 L 162.00 469.00 L 163.00 471.00 L 163.00 475.00 L 164.00 476.00 L 163.00 477.00 L 164.00 478.00 L 163.00 484.00 L 159.00 489.00 L 157.00 489.00 L 157.00 492.00 L 156.00 493.00 L 150.00 490.00 L 148.00 491.00 L 146.00 489.00 L 147.00 488.00 L 147.00 485.00 L 146.00 484.00 L 147.00 483.00 L 146.00 482.00 L 146.00 466.00 L 147.00 465.00 L 152.00 465.00 L 153.00 464.00 L 153.00 450.00 Z M 131.00 450.00 L 132.00 449.00 L 133.00 450.00 L 132.00 451.00 Z M 160.00 447.00 L 161.00 448.00 L 161.00 452.00 L 160.00 453.00 L 160.00 458.00 L 158.00 460.00 L 157.00 458.00 L 158.00 457.00 L 158.00 452.00 L 159.00 451.00 L 159.00 448.00 Z M 149.00 447.00 L 150.00 448.00 L 150.00 452.00 L 149.00 453.00 L 148.00 452.00 L 148.00 448.00 Z M 131.00 447.00 L 132.00 448.00 L 129.00 452.00 L 127.00 450.00 L 127.00 449.00 Z M 164.00 447.00 L 165.00 446.00 L 166.00 447.00 L 165.00 448.00 Z M 160.00 447.00 L 161.00 446.00 L 162.00 447.00 L 161.00 448.00 Z M 146.00 446.00 L 147.00 447.00 L 147.00 451.00 L 146.00 452.00 L 145.00 451.00 L 145.00 447.00 Z M 128.00 447.00 L 129.00 446.00 L 130.00 447.00 L 129.00 448.00 Z M 123.00 447.00 L 124.00 446.00 L 125.00 448.00 L 124.00 449.00 Z M 131.00 446.00 L 132.00 445.00 L 133.00 446.00 L 132.00 447.00 Z M 127.00 446.00 L 128.00 445.00 L 129.00 446.00 L 128.00 447.00 Z M 124.00 446.00 L 125.00 445.00 L 126.00 446.00 L 125.00 447.00 Z M 136.00 444.00 L 137.00 443.00 L 138.00 444.00 L 137.00 445.00 Z M 135.00 443.00 L 137.00 445.00 L 135.00 446.00 L 135.00 449.00 L 134.00 450.00 L 133.00 449.00 L 133.00 445.00 Z M 123.00 444.00 L 124.00 443.00 L 125.00 445.00 L 124.00 446.00 Z M 162.00 442.00 L 163.00 443.00 L 163.00 445.00 L 162.00 446.00 L 161.00 445.00 L 161.00 443.00 Z M 133.00 443.00 L 134.00 442.00 L 135.00 443.00 L 134.00 444.00 Z M 128.00 443.00 L 129.00 442.00 L 130.00 444.00 L 129.00 445.00 Z M 124.00 443.00 L 125.00 442.00 L 126.00 443.00 L 125.00 444.00 Z M 164.00 441.00 L 165.00 440.00 L 166.00 441.00 L 165.00 442.00 Z M 131.00 438.00 L 132.00 440.00 L 130.00 442.00 L 129.00 442.00 L 127.00 445.00 L 126.00 444.00 L 126.00 442.00 Z M 142.00 438.00 L 143.00 437.00 L 144.00 438.00 L 143.00 439.00 Z M 143.00 437.00 L 144.00 436.00 L 145.00 437.00 L 144.00 438.00 Z M 137.00 436.00 L 138.00 437.00 L 138.00 441.00 L 136.00 444.00 L 135.00 443.00 L 135.00 439.00 Z M 135.00 434.00 L 136.00 433.00 L 137.00 435.00 L 136.00 436.00 Z M 138.00 434.00 L 139.00 432.00 L 141.00 433.00 L 139.00 435.00 Z M 136.00 433.00 L 137.00 432.00 L 138.00 433.00 L 137.00 434.00 Z M 132.00 433.00 L 133.00 432.00 L 134.00 433.00 L 133.00 434.00 Z M 127.00 434.00 L 130.00 432.00 L 131.00 434.00 L 132.00 433.00 L 133.00 435.00 L 134.00 434.00 L 136.00 436.00 L 134.00 438.00 L 133.00 437.00 L 132.00 438.00 L 131.00 436.00 L 130.00 436.00 L 129.00 438.00 Z M 137.00 432.00 L 138.00 431.00 L 139.00 432.00 L 138.00 433.00 Z M 131.00 429.00 L 132.00 430.00 L 132.00 432.00 L 131.00 433.00 L 130.00 432.00 L 130.00 430.00 Z M 127.00 429.00 L 128.00 430.00 L 128.00 433.00 L 127.00 434.00 L 126.00 433.00 L 126.00 430.00 Z M 132.00 428.00 L 133.00 427.00 L 134.00 429.00 L 133.00 430.00 Z M 140.00 426.00 L 141.00 427.00 L 141.00 429.00 L 140.00 430.00 L 138.00 430.00 L 137.00 429.00 L 139.00 428.00 Z M 125.00 427.00 L 126.00 426.00 L 127.00 427.00 L 126.00 428.00 Z M 134.00 425.00 L 135.00 424.00 L 136.00 425.00 L 135.00 426.00 Z M 143.00 423.00 L 144.00 424.00 L 144.00 430.00 L 143.00 431.00 L 143.00 437.00 L 142.00 438.00 L 143.00 440.00 L 143.00 444.00 L 141.00 445.00 L 141.00 448.00 L 140.00 449.00 L 139.00 448.00 L 139.00 440.00 L 141.00 436.00 L 141.00 430.00 L 142.00 429.00 L 142.00 426.00 L 141.00 425.00 Z M 148.00 422.00 L 150.00 422.00 L 151.00 423.00 L 152.00 422.00 L 158.00 423.00 L 162.00 426.00 L 162.00 428.00 L 163.00 429.00 L 163.00 436.00 L 162.00 437.00 L 162.00 439.00 L 157.00 444.00 L 155.00 444.00 L 154.00 446.00 L 153.00 445.00 L 147.00 445.00 L 146.00 444.00 L 147.00 443.00 L 147.00 431.00 L 146.00 429.00 L 147.00 428.00 L 147.00 423.00 Z M 135.00 423.00 L 136.00 422.00 L 137.00 424.00 L 136.00 425.00 Z M 130.00 422.00 L 131.00 423.00 L 131.00 426.00 L 130.00 427.00 L 129.00 426.00 L 129.00 423.00 Z M 131.00 421.00 L 132.00 420.00 L 133.00 422.00 L 132.00 423.00 Z M 128.00 421.00 L 129.00 420.00 L 130.00 421.00 L 129.00 422.00 Z M 122.00 414.00 L 123.00 413.00 L 124.00 414.00 L 123.00 415.00 Z M 126.00 413.00 L 127.00 412.00 L 128.00 413.00 L 127.00 414.00 Z M 127.00 412.00 L 129.00 411.00 L 130.00 413.00 L 129.00 414.00 Z M 127.00 410.00 L 129.00 408.00 L 131.00 409.00 L 129.00 411.00 Z M 450.00 400.00 L 436.00 406.00 L 429.00 416.00 L 426.00 437.00 L 436.00 457.00 L 460.00 476.00 L 462.00 486.00 L 456.00 490.00 L 443.00 490.00 L 428.00 480.00 L 428.00 508.00 L 443.00 512.00 L 456.00 512.00 L 457.00 509.00 L 458.00 512.00 L 462.00 510.00 L 461.00 505.00 L 458.00 510.00 L 457.00 508.00 L 458.00 504.00 L 461.00 503.00 L 459.00 501.00 L 462.00 500.00 L 466.00 482.00 L 468.00 491.00 L 463.00 503.00 L 464.00 510.00 L 470.00 506.00 L 466.00 500.00 L 469.00 495.00 L 470.00 500.00 L 471.00 496.00 L 473.00 500.00 L 476.00 499.00 L 476.00 489.00 L 480.00 480.00 L 480.00 460.00 L 478.00 459.00 L 477.00 463.00 L 475.00 463.00 L 475.00 455.00 L 454.00 439.00 L 451.00 428.00 L 455.00 422.00 L 463.00 420.00 L 469.00 423.00 L 473.00 431.00 L 480.00 431.00 L 481.00 403.00 L 470.00 401.00 L 470.00 407.00 L 468.00 401.00 L 464.00 403.00 L 462.00 400.00 Z M 468.00 506.00 L 469.00 505.00 L 470.00 506.00 L 469.00 507.00 Z M 441.00 505.00 L 442.00 504.00 L 443.00 505.00 L 442.00 506.00 Z M 434.00 505.00 L 435.00 504.00 L 436.00 505.00 L 435.00 506.00 Z M 439.00 502.00 L 440.00 501.00 L 441.00 502.00 L 440.00 503.00 Z M 465.00 501.00 L 466.00 500.00 L 467.00 501.00 L 466.00 502.00 Z M 467.00 495.00 L 467.00 493.00 L 468.00 492.00 L 470.00 492.00 L 471.00 493.00 L 468.00 496.00 Z M 459.00 492.00 L 460.00 491.00 L 462.00 492.00 L 461.00 493.00 Z M 470.00 492.00 L 472.00 490.00 L 473.00 491.00 L 472.00 493.00 Z M 458.00 491.00 L 459.00 490.00 L 460.00 491.00 L 459.00 492.00 Z M 473.00 487.00 L 474.00 486.00 L 475.00 487.00 L 474.00 488.00 Z M 474.00 485.00 L 475.00 484.00 L 476.00 485.00 L 475.00 486.00 Z M 462.00 482.00 L 464.00 480.00 L 466.00 482.00 L 465.00 483.00 L 463.00 483.00 Z M 464.00 480.00 L 465.00 479.00 L 466.00 480.00 L 465.00 481.00 Z M 472.00 474.00 L 473.00 473.00 L 474.00 474.00 L 473.00 475.00 Z M 471.00 472.00 L 472.00 471.00 L 473.00 473.00 L 472.00 474.00 Z M 478.00 470.00 L 479.00 469.00 L 480.00 471.00 L 479.00 472.00 Z M 477.00 469.00 L 479.00 472.00 L 477.00 476.00 L 476.00 475.00 L 476.00 470.00 Z M 468.00 469.00 L 470.00 468.00 L 471.00 470.00 L 469.00 471.00 Z M 471.00 467.00 L 472.00 466.00 L 474.00 467.00 L 473.00 468.00 Z M 475.00 463.00 L 476.00 464.00 L 476.00 466.00 L 475.00 467.00 L 474.00 466.00 L 474.00 464.00 Z M 464.00 460.00 L 465.00 459.00 L 466.00 460.00 L 465.00 461.00 Z M 462.00 454.00 L 463.00 453.00 L 464.00 455.00 L 463.00 456.00 Z M 460.00 449.00 L 461.00 448.00 L 463.00 449.00 L 462.00 450.00 Z M 471.00 405.00 L 473.00 404.00 L 475.00 408.00 L 473.00 409.00 Z M 70.00 279.00 L 70.00 281.00 L 72.00 282.00 Z M 371.00 278.00 L 375.00 309.00 L 374.00 379.00 L 371.00 388.00 L 406.00 387.00 L 400.00 373.00 L 400.00 344.00 L 402.00 342.00 L 418.00 343.00 L 420.00 346.00 L 420.00 376.00 L 416.00 387.00 L 450.00 387.00 L 448.00 386.00 L 449.00 382.00 L 446.00 376.00 L 444.00 360.00 L 446.00 344.00 L 444.00 302.00 L 446.00 287.00 L 450.00 278.00 L 415.00 278.00 L 419.00 295.00 L 421.00 296.00 L 419.00 299.00 L 420.00 316.00 L 418.00 319.00 L 400.00 318.00 L 399.00 290.00 L 403.00 278.00 Z M 372.00 386.00 L 373.00 385.00 L 374.00 386.00 L 373.00 387.00 Z M 439.00 377.00 L 440.00 376.00 L 442.00 377.00 L 441.00 378.00 Z M 443.00 372.00 L 444.00 371.00 L 445.00 373.00 L 444.00 374.00 Z M 433.00 367.00 L 434.00 366.00 L 435.00 367.00 L 434.00 368.00 Z M 443.00 364.00 L 444.00 363.00 L 445.00 365.00 L 444.00 366.00 Z M 443.00 362.00 L 444.00 361.00 L 445.00 362.00 L 444.00 363.00 Z M 440.00 362.00 L 441.00 361.00 L 442.00 362.00 L 441.00 363.00 Z M 442.00 358.00 L 444.00 357.00 L 445.00 359.00 L 443.00 360.00 Z M 416.00 336.00 L 417.00 335.00 L 418.00 336.00 L 417.00 337.00 Z M 439.00 314.00 L 440.00 313.00 L 441.00 314.00 L 440.00 315.00 Z M 442.00 300.00 L 443.00 299.00 L 444.00 300.00 L 443.00 301.00 Z M 390.00 300.00 L 391.00 299.00 L 392.00 300.00 L 391.00 301.00 Z M 442.00 298.00 L 443.00 297.00 L 444.00 298.00 L 443.00 299.00 Z M 443.00 297.00 L 444.00 296.00 L 445.00 297.00 L 444.00 298.00 Z M 440.00 297.00 L 441.00 296.00 L 442.00 297.00 L 441.00 298.00 Z M 431.00 296.00 L 433.00 295.00 L 435.00 297.00 L 433.00 299.00 L 431.00 297.00 Z M 419.00 294.00 L 420.00 293.00 L 422.00 294.00 L 421.00 295.00 Z M 437.00 293.00 L 438.00 292.00 L 439.00 293.00 L 438.00 294.00 Z M 442.00 292.00 L 443.00 291.00 L 444.00 292.00 L 443.00 293.00 Z M 440.00 292.00 L 441.00 291.00 L 443.00 293.00 L 441.00 294.00 Z M 431.00 290.00 L 432.00 289.00 L 433.00 290.00 L 432.00 291.00 Z M 422.00 286.00 L 423.00 285.00 L 425.00 286.00 L 424.00 287.00 Z M 439.00 284.00 L 440.00 283.00 L 441.00 285.00 L 440.00 286.00 Z M 427.00 282.00 L 428.00 281.00 L 429.00 282.00 L 428.00 283.00 Z M 377.00 282.00 L 378.00 281.00 L 379.00 283.00 L 378.00 284.00 Z M 225.00 278.00 L 228.00 285.00 L 230.00 306.00 L 229.00 374.00 L 225.00 388.00 L 265.00 389.00 L 285.00 387.00 L 288.00 362.00 L 275.00 366.00 L 257.00 367.00 L 254.00 345.00 L 255.00 342.00 L 262.00 341.00 L 279.00 343.00 L 279.00 320.00 L 256.00 321.00 L 254.00 318.00 L 254.00 299.00 L 272.00 298.00 L 280.00 300.00 L 286.00 304.00 L 285.00 278.00 Z M 263.00 382.00 L 264.00 381.00 L 265.00 382.00 L 264.00 383.00 Z M 256.00 379.00 L 257.00 378.00 L 258.00 379.00 L 257.00 380.00 Z M 264.00 376.00 L 265.00 375.00 L 266.00 376.00 L 265.00 377.00 Z M 264.00 369.00 L 265.00 368.00 L 266.00 370.00 L 265.00 371.00 Z M 270.00 341.00 L 271.00 340.00 L 272.00 341.00 L 271.00 342.00 Z M 271.00 338.00 L 272.00 337.00 L 273.00 338.00 L 272.00 339.00 Z M 245.00 330.00 L 246.00 328.00 L 248.00 329.00 L 246.00 331.00 Z M 232.00 291.00 L 233.00 290.00 L 234.00 291.00 L 233.00 292.00 Z M 259.00 286.00 L 260.00 285.00 L 261.00 286.00 L 260.00 287.00 Z M 254.00 286.00 L 255.00 285.00 L 257.00 287.00 L 255.00 288.00 Z M 264.00 283.00 L 265.00 282.00 L 266.00 283.00 L 265.00 284.00 Z M 318.00 278.00 L 310.00 282.00 L 305.00 287.00 L 299.00 304.00 L 298.00 356.00 L 300.00 366.00 L 304.00 376.00 L 314.00 387.00 L 324.00 390.00 L 349.00 389.00 L 361.00 382.00 L 363.00 358.00 L 362.00 355.00 L 347.00 354.00 L 343.00 365.00 L 339.00 369.00 L 335.00 370.00 L 330.00 366.00 L 325.00 347.00 L 325.00 313.00 L 327.00 303.00 L 335.00 297.00 L 343.00 301.00 L 345.00 305.00 L 345.00 311.00 L 361.00 310.00 L 361.00 279.00 L 351.00 277.00 Z M 316.00 381.00 L 317.00 380.00 L 319.00 381.00 L 318.00 382.00 Z M 331.00 376.00 L 332.00 375.00 L 333.00 376.00 L 332.00 377.00 Z M 312.00 375.00 L 313.00 374.00 L 315.00 375.00 L 314.00 376.00 Z M 305.00 369.00 L 306.00 368.00 L 307.00 369.00 L 306.00 370.00 Z M 318.00 353.00 L 319.00 352.00 L 320.00 353.00 L 319.00 354.00 Z M 316.00 309.00 L 317.00 308.00 L 318.00 310.00 L 317.00 311.00 Z M 323.00 306.00 L 324.00 305.00 L 325.00 306.00 L 324.00 307.00 Z M 316.00 304.00 L 317.00 303.00 L 319.00 304.00 L 318.00 305.00 Z M 301.00 298.00 L 302.00 297.00 L 303.00 298.00 L 302.00 299.00 Z M 339.00 295.00 L 340.00 294.00 L 341.00 295.00 L 340.00 296.00 Z M 151.00 278.00 L 152.00 282.00 L 150.00 303.00 L 153.00 304.00 L 159.00 301.00 L 166.00 300.00 L 172.00 301.00 L 171.00 329.00 L 172.00 371.00 L 170.00 373.00 L 169.00 381.00 L 166.00 387.00 L 167.00 388.00 L 199.00 386.00 L 203.00 387.00 L 198.00 375.00 L 197.00 368.00 L 198.00 344.00 L 197.00 301.00 L 209.00 300.00 L 219.00 304.00 L 218.00 278.00 L 198.00 277.00 Z M 178.00 386.00 L 179.00 385.00 L 180.00 386.00 L 179.00 387.00 Z M 171.00 365.00 L 172.00 364.00 L 173.00 365.00 L 172.00 366.00 Z M 178.00 357.00 L 179.00 356.00 L 180.00 357.00 L 179.00 358.00 Z M 175.00 349.00 L 176.00 348.00 L 177.00 349.00 L 176.00 350.00 Z M 183.00 343.00 L 184.00 342.00 L 185.00 343.00 L 184.00 344.00 Z M 184.00 342.00 L 185.00 341.00 L 186.00 342.00 L 185.00 343.00 Z M 184.00 340.00 L 185.00 339.00 L 186.00 340.00 L 185.00 341.00 Z M 177.00 339.00 L 179.00 338.00 L 180.00 340.00 L 179.00 341.00 Z M 184.00 338.00 L 185.00 337.00 L 186.00 338.00 L 185.00 339.00 Z M 181.00 331.00 L 182.00 332.00 L 181.00 333.00 L 181.00 335.00 L 179.00 337.00 L 177.00 333.00 L 179.00 331.00 Z M 176.00 317.00 L 177.00 316.00 L 178.00 317.00 L 177.00 318.00 Z M 175.00 313.00 L 177.00 312.00 L 178.00 314.00 L 176.00 315.00 Z M 183.00 299.00 L 184.00 298.00 L 185.00 299.00 L 184.00 300.00 Z M 164.00 298.00 L 165.00 297.00 L 166.00 298.00 L 165.00 299.00 Z M 162.00 297.00 L 163.00 296.00 L 164.00 297.00 L 163.00 298.00 Z M 163.00 296.00 L 164.00 295.00 L 165.00 296.00 L 164.00 297.00 Z M 195.00 292.00 L 196.00 291.00 L 197.00 292.00 L 196.00 293.00 Z M 198.00 290.00 L 199.00 289.00 L 200.00 290.00 L 199.00 291.00 Z M 206.00 283.00 L 207.00 282.00 L 208.00 283.00 L 207.00 284.00 Z M 154.00 283.00 L 155.00 282.00 L 156.00 283.00 L 155.00 284.00 Z M 172.00 280.00 L 173.00 279.00 L 174.00 280.00 L 173.00 281.00 Z M 335.00 200.00 L 336.00 204.00 L 336.00 224.00 L 337.00 225.00 L 336.00 236.00 L 338.00 243.00 L 336.00 247.00 L 337.00 250.00 L 336.00 251.00 L 336.00 257.00 L 334.00 261.00 L 353.00 261.00 L 350.00 256.00 L 350.00 237.00 L 351.00 236.00 L 361.00 236.00 L 362.00 237.00 L 362.00 244.00 L 361.00 245.00 L 362.00 250.00 L 360.00 261.00 L 378.00 261.00 L 375.00 254.00 L 375.00 208.00 L 378.00 200.00 L 360.00 200.00 L 362.00 208.00 L 362.00 223.00 L 360.00 225.00 L 353.00 225.00 L 350.00 223.00 L 350.00 217.00 L 351.00 216.00 L 350.00 215.00 L 350.00 209.00 L 352.00 200.00 Z M 341.00 258.00 L 342.00 257.00 L 343.00 258.00 L 342.00 259.00 Z M 368.00 231.00 L 369.00 230.00 L 370.00 231.00 L 369.00 232.00 Z M 343.00 216.00 L 343.00 214.00 L 344.00 213.00 L 346.00 215.00 L 344.00 217.00 Z M 373.00 212.00 L 374.00 211.00 L 375.00 212.00 L 374.00 213.00 Z M 373.00 209.00 L 374.00 208.00 L 375.00 209.00 L 374.00 210.00 Z M 386.00 199.00 L 386.00 203.00 L 388.00 209.00 L 388.00 218.00 L 387.00 219.00 L 387.00 223.00 L 388.00 224.00 L 388.00 255.00 L 386.00 260.00 L 387.00 261.00 L 393.00 261.00 L 394.00 260.00 L 395.00 261.00 L 396.00 260.00 L 399.00 261.00 L 420.00 261.00 L 420.00 246.00 L 412.00 249.00 L 403.00 249.00 L 402.00 248.00 L 402.00 239.00 L 401.00 238.00 L 403.00 235.00 L 406.00 237.00 L 407.00 236.00 L 408.00 237.00 L 414.00 237.00 L 414.00 225.00 L 410.00 225.00 L 409.00 226.00 L 402.00 225.00 L 401.00 224.00 L 401.00 213.00 L 406.00 211.00 L 407.00 212.00 L 416.00 212.00 L 419.00 213.00 L 419.00 202.00 L 418.00 201.00 L 419.00 200.00 L 414.00 200.00 L 413.00 199.00 L 412.00 200.00 L 410.00 199.00 L 396.00 199.00 L 395.00 200.00 L 393.00 199.00 L 391.00 200.00 L 390.00 199.00 L 388.00 200.00 Z M 391.00 249.00 L 393.00 247.00 L 394.00 248.00 L 393.00 250.00 Z M 396.00 246.00 L 397.00 245.00 L 398.00 246.00 L 397.00 247.00 Z M 400.00 245.00 L 401.00 244.00 L 402.00 245.00 L 401.00 246.00 Z M 409.00 236.00 L 410.00 235.00 L 411.00 236.00 L 410.00 237.00 Z M 397.00 236.00 L 398.00 235.00 L 399.00 236.00 L 398.00 237.00 Z M 411.00 232.00 L 412.00 231.00 L 413.00 232.00 L 412.00 233.00 Z M 397.00 225.00 L 398.00 224.00 L 400.00 225.00 L 399.00 226.00 Z M 388.00 216.00 L 389.00 215.00 L 390.00 216.00 L 389.00 217.00 Z M 411.00 210.00 L 412.00 209.00 L 413.00 210.00 L 412.00 211.00 Z M 290.00 200.00 L 290.00 203.00 L 289.00 204.00 L 289.00 214.00 L 290.00 215.00 L 293.00 213.00 L 295.00 213.00 L 299.00 211.00 L 301.00 213.00 L 301.00 254.00 L 300.00 255.00 L 299.00 259.00 L 297.00 261.00 L 302.00 261.00 L 303.00 262.00 L 312.00 262.00 L 313.00 261.00 L 314.00 262.00 L 315.00 261.00 L 319.00 261.00 L 316.00 256.00 L 316.00 245.00 L 315.00 244.00 L 316.00 243.00 L 315.00 242.00 L 315.00 238.00 L 316.00 237.00 L 316.00 233.00 L 315.00 232.00 L 316.00 231.00 L 316.00 212.00 L 317.00 211.00 L 320.00 211.00 L 327.00 214.00 L 327.00 206.00 L 326.00 205.00 L 327.00 204.00 L 326.00 203.00 L 326.00 200.00 L 305.00 200.00 L 304.00 199.00 L 303.00 200.00 Z M 307.00 259.00 L 308.00 258.00 L 310.00 259.00 L 309.00 260.00 Z M 311.00 249.00 L 312.00 248.00 L 313.00 250.00 L 312.00 251.00 Z M 313.00 224.00 L 314.00 223.00 L 316.00 224.00 L 315.00 225.00 Z M 314.00 206.00 L 315.00 205.00 L 316.00 207.00 L 315.00 208.00 Z M 316.00 203.00 L 317.00 202.00 L 319.00 202.00 L 320.00 204.00 L 319.00 205.00 Z M 319.00 201.00 L 321.00 200.00 L 322.00 202.00 L 321.00 203.00 Z M 232.00 199.00 L 231.00 201.00 L 232.00 202.00 L 232.00 206.00 L 233.00 207.00 L 233.00 238.00 L 234.00 239.00 L 234.00 244.00 L 233.00 245.00 L 234.00 246.00 L 233.00 247.00 L 233.00 255.00 L 230.00 261.00 L 251.00 261.00 L 249.00 258.00 L 249.00 254.00 L 248.00 253.00 L 249.00 252.00 L 248.00 250.00 L 249.00 249.00 L 248.00 248.00 L 248.00 241.00 L 249.00 240.00 L 249.00 238.00 L 250.00 237.00 L 262.00 237.00 L 263.00 238.00 L 264.00 237.00 L 264.00 223.00 L 262.00 223.00 L 261.00 224.00 L 256.00 224.00 L 255.00 225.00 L 250.00 225.00 L 248.00 223.00 L 249.00 221.00 L 248.00 215.00 L 250.00 211.00 L 258.00 211.00 L 259.00 212.00 L 262.00 212.00 L 267.00 214.00 L 267.00 199.00 L 266.00 200.00 L 233.00 200.00 Z M 232.00 257.00 L 233.00 256.00 L 235.00 256.00 L 237.00 260.00 L 236.00 261.00 L 234.00 261.00 L 232.00 259.00 Z M 233.00 253.00 L 234.00 252.00 L 236.00 253.00 L 235.00 254.00 Z M 242.00 251.00 L 243.00 250.00 L 244.00 251.00 L 243.00 252.00 Z M 236.00 249.00 L 238.00 248.00 L 239.00 250.00 L 237.00 251.00 Z M 237.00 245.00 L 238.00 244.00 L 239.00 245.00 L 238.00 246.00 Z M 238.00 243.00 L 239.00 242.00 L 240.00 243.00 L 239.00 244.00 Z M 239.00 238.00 L 240.00 240.00 L 239.00 242.00 L 237.00 243.00 L 236.00 242.00 L 236.00 240.00 L 238.00 238.00 Z M 195.00 199.00 L 194.00 200.00 L 190.00 201.00 L 187.00 204.00 L 186.00 204.00 L 182.00 212.00 L 182.00 216.00 L 181.00 217.00 L 181.00 236.00 L 182.00 237.00 L 181.00 238.00 L 182.00 239.00 L 181.00 240.00 L 182.00 242.00 L 181.00 243.00 L 182.00 244.00 L 182.00 249.00 L 185.00 255.00 L 190.00 259.00 L 194.00 260.00 L 195.00 261.00 L 201.00 261.00 L 202.00 262.00 L 206.00 262.00 L 207.00 261.00 L 210.00 261.00 L 211.00 260.00 L 216.00 259.00 L 221.00 254.00 L 222.00 252.00 L 222.00 248.00 L 223.00 247.00 L 223.00 212.00 L 222.00 211.00 L 222.00 209.00 L 220.00 205.00 L 216.00 201.00 L 214.00 200.00 L 211.00 200.00 L 210.00 199.00 Z M 215.00 258.00 L 216.00 256.00 L 218.00 257.00 L 216.00 259.00 Z M 214.00 255.00 L 215.00 254.00 L 216.00 255.00 L 215.00 256.00 Z M 201.00 209.00 L 205.00 210.00 L 208.00 214.00 L 208.00 230.00 L 209.00 231.00 L 208.00 232.00 L 209.00 233.00 L 209.00 237.00 L 208.00 238.00 L 209.00 239.00 L 208.00 241.00 L 208.00 246.00 L 207.00 248.00 L 203.00 251.00 L 199.00 249.00 L 198.00 245.00 L 197.00 244.00 L 198.00 243.00 L 197.00 242.00 L 197.00 236.00 L 198.00 235.00 L 198.00 229.00 L 197.00 228.00 L 197.00 212.00 Z M 547.00 182.00 L 546.00 183.00 L 546.00 185.00 Z M 78.00 158.00 L 43.00 191.00 L 46.00 210.00 L 64.00 260.00 L 66.00 246.00 L 63.00 245.00 L 65.00 240.00 L 62.00 235.00 L 67.00 236.00 L 67.00 241.00 L 71.00 230.00 L 69.00 257.00 L 73.00 258.00 L 68.00 264.00 L 69.00 275.00 L 77.00 259.00 L 82.00 259.00 L 81.00 276.00 L 78.00 277.00 L 79.00 267.00 L 75.00 272.00 L 78.00 285.00 L 79.00 278.00 L 82.00 281.00 L 93.00 267.00 L 100.00 290.00 L 98.00 283.00 L 100.00 280.00 L 103.00 286.00 L 105.00 280.00 L 100.00 280.00 L 103.00 275.00 L 100.00 272.00 L 106.00 272.00 L 109.00 281.00 L 101.00 296.00 L 131.00 375.00 L 109.00 210.00 L 103.00 211.00 L 90.00 225.00 L 83.00 161.00 Z M 76.00 277.00 L 77.00 276.00 L 78.00 277.00 L 77.00 278.00 Z M 71.00 264.00 L 72.00 263.00 L 73.00 264.00 L 72.00 265.00 Z M 77.00 250.00 L 80.00 252.00 L 79.00 253.00 L 79.00 255.00 L 80.00 256.00 L 79.00 257.00 L 77.00 256.00 L 75.00 260.00 L 74.00 259.00 L 74.00 255.00 L 76.00 253.00 L 76.00 251.00 Z M 62.00 241.00 L 63.00 240.00 L 64.00 242.00 L 63.00 243.00 Z M 61.00 240.00 L 62.00 239.00 L 63.00 240.00 L 62.00 241.00 Z M 105.00 229.00 L 106.00 228.00 L 107.00 229.00 L 106.00 230.00 Z M 109.00 226.00 L 110.00 225.00 L 111.00 227.00 L 110.00 228.00 Z M 102.00 220.00 L 103.00 219.00 L 104.00 220.00 L 103.00 221.00 Z M 104.00 219.00 L 105.00 217.00 L 107.00 218.00 L 105.00 220.00 Z M 69.00 184.00 L 70.00 183.00 L 71.00 184.00 L 70.00 185.00 Z M 72.00 181.00 L 73.00 180.00 L 75.00 181.00 L 74.00 182.00 Z M 69.00 181.00 L 70.00 180.00 L 72.00 181.00 L 71.00 182.00 Z M 54.00 180.00 L 56.00 182.00 L 56.00 183.00 L 54.00 185.00 L 53.00 185.00 L 51.00 183.00 Z M 60.00 178.00 L 61.00 177.00 L 63.00 178.00 L 62.00 179.00 Z M 72.00 177.00 L 73.00 175.00 L 75.00 176.00 L 73.00 178.00 Z M 77.00 174.00 L 78.00 173.00 L 79.00 174.00 L 78.00 175.00 Z M 80.00 173.00 L 81.00 172.00 L 82.00 173.00 L 81.00 174.00 Z M 75.00 169.00 L 76.00 168.00 L 78.00 169.00 L 77.00 170.00 Z M 78.00 165.00 L 80.00 164.00 L 81.00 166.00 L 79.00 167.00 Z M 519.00 157.00 L 516.00 161.00 L 519.00 179.00 L 515.00 176.00 L 514.00 185.00 L 516.00 186.00 L 514.00 187.00 L 509.00 225.00 L 496.00 211.00 L 490.00 210.00 L 481.00 287.00 L 476.00 308.00 L 475.00 338.00 L 473.00 338.00 L 468.00 372.00 L 470.00 364.00 L 473.00 366.00 L 475.00 360.00 L 473.00 359.00 L 476.00 353.00 L 473.00 348.00 L 475.00 347.00 L 478.00 352.00 L 505.00 268.00 L 510.00 270.00 L 522.00 288.00 L 527.00 286.00 L 527.00 280.00 L 529.00 281.00 L 553.00 209.00 L 556.00 191.00 L 552.00 196.00 L 553.00 187.00 L 549.00 184.00 L 547.00 194.00 L 544.00 195.00 L 542.00 177.00 L 532.00 168.00 L 531.00 170.00 Z M 472.00 361.00 L 473.00 360.00 L 474.00 362.00 L 473.00 363.00 Z M 471.00 359.00 L 472.00 358.00 L 473.00 360.00 L 472.00 361.00 Z M 473.00 353.00 L 474.00 352.00 L 475.00 353.00 L 474.00 354.00 Z M 471.00 353.00 L 472.00 352.00 L 473.00 353.00 L 472.00 354.00 Z M 475.00 347.00 L 476.00 346.00 L 477.00 347.00 L 476.00 348.00 Z M 472.00 346.00 L 473.00 345.00 L 474.00 347.00 L 473.00 348.00 Z M 478.00 343.00 L 479.00 344.00 L 479.00 347.00 L 478.00 348.00 L 477.00 347.00 L 477.00 344.00 Z M 476.00 343.00 L 477.00 342.00 L 478.00 343.00 L 477.00 344.00 Z M 477.00 329.00 L 479.00 331.00 L 479.00 332.00 L 478.00 333.00 L 478.00 336.00 L 476.00 340.00 L 475.00 339.00 L 475.00 336.00 L 476.00 335.00 L 476.00 330.00 Z M 481.00 324.00 L 483.00 323.00 L 484.00 325.00 L 482.00 326.00 Z M 481.00 322.00 L 482.00 321.00 L 483.00 322.00 L 482.00 323.00 Z M 482.00 321.00 L 483.00 320.00 L 485.00 321.00 L 484.00 322.00 Z M 478.00 319.00 L 479.00 320.00 L 479.00 329.00 L 478.00 330.00 L 476.00 327.00 L 477.00 326.00 L 477.00 320.00 Z M 479.00 315.00 L 480.00 316.00 L 480.00 318.00 L 479.00 319.00 L 478.00 318.00 L 478.00 316.00 Z M 523.00 286.00 L 524.00 285.00 L 525.00 286.00 L 524.00 287.00 Z M 518.00 283.00 L 519.00 282.00 L 520.00 283.00 L 519.00 284.00 Z M 519.00 279.00 L 520.00 278.00 L 521.00 279.00 L 520.00 280.00 Z M 521.00 277.00 L 522.00 276.00 L 524.00 276.00 L 525.00 277.00 L 524.00 278.00 L 522.00 278.00 Z M 511.00 271.00 L 513.00 270.00 L 514.00 272.00 L 512.00 273.00 Z M 526.00 269.00 L 527.00 268.00 L 528.00 269.00 L 527.00 270.00 Z M 529.00 268.00 L 530.00 267.00 L 531.00 268.00 L 530.00 269.00 Z M 514.00 262.00 L 515.00 261.00 L 516.00 262.00 L 515.00 263.00 Z M 515.00 261.00 L 516.00 260.00 L 517.00 261.00 L 516.00 262.00 Z M 524.00 255.00 L 525.00 254.00 L 526.00 256.00 L 525.00 257.00 Z M 511.00 250.00 L 513.00 249.00 L 514.00 251.00 L 512.00 252.00 Z M 527.00 248.00 L 528.00 247.00 L 529.00 248.00 L 528.00 249.00 Z M 507.00 244.00 L 508.00 243.00 L 509.00 244.00 L 508.00 245.00 Z M 499.00 243.00 L 500.00 242.00 L 502.00 243.00 L 501.00 244.00 Z M 503.00 241.00 L 504.00 240.00 L 507.00 240.00 L 508.00 241.00 L 507.00 242.00 L 504.00 242.00 Z M 526.00 237.00 L 527.00 236.00 L 528.00 237.00 L 527.00 238.00 Z M 514.00 235.00 L 516.00 234.00 L 518.00 236.00 L 516.00 237.00 Z M 542.00 234.00 L 543.00 233.00 L 544.00 235.00 L 543.00 236.00 Z M 514.00 230.00 L 516.00 229.00 L 517.00 231.00 L 515.00 232.00 Z M 525.00 228.00 L 526.00 227.00 L 527.00 228.00 L 526.00 229.00 Z M 519.00 228.00 L 521.00 227.00 L 522.00 229.00 L 520.00 230.00 Z M 491.00 226.00 L 492.00 225.00 L 493.00 226.00 L 492.00 227.00 Z M 534.00 225.00 L 535.00 224.00 L 537.00 225.00 L 536.00 226.00 Z M 519.00 222.00 L 520.00 221.00 L 521.00 222.00 L 520.00 223.00 Z M 533.00 217.00 L 534.00 216.00 L 535.00 217.00 L 534.00 218.00 Z M 540.00 215.00 L 541.00 213.00 L 543.00 214.00 L 541.00 216.00 Z M 531.00 214.00 L 532.00 213.00 L 534.00 216.00 L 532.00 217.00 L 531.00 216.00 Z M 515.00 217.00 L 517.00 213.00 L 519.00 213.00 L 520.00 214.00 L 520.00 215.00 L 517.00 218.00 Z M 531.00 212.00 L 532.00 211.00 L 533.00 212.00 L 532.00 213.00 Z M 518.00 208.00 L 519.00 209.00 L 519.00 211.00 L 517.00 213.00 L 515.00 211.00 L 515.00 210.00 L 517.00 208.00 Z M 543.00 200.00 L 544.00 199.00 L 545.00 200.00 L 544.00 201.00 Z M 531.00 197.00 L 533.00 195.00 L 535.00 196.00 L 535.00 197.00 L 533.00 199.00 Z M 549.00 195.00 L 550.00 194.00 L 551.00 195.00 L 550.00 196.00 Z M 548.00 191.00 L 549.00 190.00 L 550.00 192.00 L 549.00 193.00 Z M 541.00 191.00 L 542.00 190.00 L 543.00 192.00 L 542.00 193.00 Z M 539.00 191.00 L 540.00 190.00 L 541.00 192.00 L 540.00 193.00 Z M 528.00 187.00 L 529.00 186.00 L 530.00 188.00 L 529.00 189.00 Z M 515.00 188.00 L 516.00 186.00 L 519.00 186.00 L 520.00 187.00 L 518.00 190.00 L 517.00 190.00 Z M 535.00 186.00 L 536.00 185.00 L 537.00 186.00 L 536.00 187.00 Z M 519.00 186.00 L 520.00 185.00 L 521.00 186.00 L 520.00 187.00 Z M 536.00 185.00 L 537.00 184.00 L 538.00 185.00 L 537.00 186.00 Z M 525.00 185.00 L 526.00 184.00 L 527.00 186.00 L 526.00 187.00 Z M 525.00 182.00 L 526.00 181.00 L 527.00 183.00 L 526.00 184.00 Z M 526.00 180.00 L 527.00 179.00 L 528.00 181.00 L 527.00 182.00 Z M 523.00 180.00 L 524.00 179.00 L 525.00 180.00 L 524.00 181.00 Z M 531.00 178.00 L 532.00 179.00 L 532.00 181.00 L 533.00 180.00 L 534.00 181.00 L 533.00 186.00 L 535.00 186.00 L 536.00 187.00 L 533.00 191.00 L 530.00 189.00 L 531.00 184.00 L 529.00 182.00 L 529.00 180.00 Z M 518.00 180.00 L 520.00 178.00 L 522.00 179.00 L 522.00 180.00 L 520.00 182.00 Z M 531.00 177.00 L 532.00 176.00 L 533.00 178.00 L 532.00 179.00 Z M 539.00 175.00 L 541.00 179.00 L 539.00 181.00 L 538.00 180.00 L 535.00 181.00 L 534.00 180.00 L 536.00 178.00 L 537.00 178.00 Z M 525.00 175.00 L 527.00 178.00 L 526.00 180.00 L 524.00 178.00 L 524.00 176.00 Z M 525.00 175.00 L 526.00 174.00 L 527.00 175.00 L 526.00 176.00 Z M 528.00 174.00 L 529.00 173.00 L 530.00 175.00 L 529.00 176.00 Z M 533.00 173.00 L 534.00 172.00 L 535.00 174.00 L 534.00 175.00 Z M 522.00 171.00 L 523.00 172.00 L 523.00 174.00 L 521.00 175.00 L 520.00 173.00 Z M 530.00 170.00 L 531.00 171.00 L 531.00 173.00 L 530.00 174.00 L 529.00 173.00 L 529.00 171.00 Z M 531.00 170.00 L 532.00 169.00 L 533.00 170.00 L 532.00 171.00 Z M 522.00 171.00 L 523.00 169.00 L 525.00 170.00 L 523.00 172.00 Z M 524.00 168.00 L 525.00 167.00 L 526.00 168.00 L 525.00 169.00 Z M 528.00 167.00 L 529.00 166.00 L 530.00 167.00 L 529.00 168.00 Z M 520.00 166.00 L 521.00 165.00 L 522.00 166.00 L 521.00 167.00 Z M 519.00 164.00 L 520.00 163.00 L 522.00 164.00 L 521.00 165.00 Z M 523.00 163.00 L 524.00 162.00 L 525.00 163.00 L 524.00 164.00 Z M 518.00 159.00 L 519.00 160.00 L 519.00 162.00 L 518.00 163.00 L 516.00 161.00 Z M 459.00 89.00 L 457.00 91.00 L 457.00 93.00 L 460.00 93.00 L 459.00 92.00 Z M 482.00 88.00 L 481.00 90.00 L 482.00 93.00 L 481.00 94.00 L 479.00 93.00 L 478.00 96.00 L 480.00 97.00 L 482.00 97.00 Z M 478.00 88.00 L 478.00 90.00 L 477.00 91.00 L 478.00 90.00 Z M 477.00 83.00 L 477.00 84.00 L 475.00 85.00 L 474.00 91.00 L 476.00 89.00 L 476.00 85.00 Z M 474.00 89.00 L 475.00 88.00 L 476.00 89.00 L 475.00 90.00 Z M 471.00 81.00 L 470.00 86.00 L 468.00 88.00 L 468.00 92.00 L 469.00 92.00 L 469.00 90.00 L 472.00 86.00 L 471.00 85.00 Z M 478.00 74.00 L 478.00 77.00 L 480.00 79.00 L 481.00 83.00 L 482.00 83.00 L 482.00 76.00 L 480.00 74.00 Z M 480.00 79.00 L 481.00 78.00 L 482.00 79.00 L 481.00 80.00 Z M 473.00 74.00 L 473.00 78.00 L 472.00 79.00 L 474.00 80.00 L 474.00 74.00 Z M 394.00 74.00 L 393.00 75.00 L 393.00 77.00 L 393.00 75.00 Z M 311.00 74.00 L 311.00 98.00 L 314.00 95.00 L 322.00 93.00 L 328.00 94.00 L 327.00 96.00 L 328.00 101.00 L 327.00 103.00 L 328.00 104.00 L 327.00 105.00 L 328.00 106.00 L 327.00 107.00 L 328.00 114.00 L 327.00 116.00 L 328.00 117.00 L 327.00 171.00 L 323.00 181.00 L 355.00 182.00 L 350.00 171.00 L 350.00 160.00 L 349.00 159.00 L 349.00 93.00 L 357.00 92.00 L 364.00 95.00 L 366.00 94.00 L 365.00 74.00 L 335.00 74.00 L 336.00 75.00 L 335.00 77.00 L 332.00 74.00 L 330.00 76.00 L 328.00 74.00 Z M 339.00 181.00 L 341.00 179.00 L 342.00 180.00 L 341.00 182.00 Z M 350.00 177.00 L 351.00 176.00 L 352.00 178.00 L 351.00 179.00 Z M 343.00 176.00 L 344.00 175.00 L 346.00 176.00 L 345.00 177.00 Z M 328.00 141.00 L 329.00 140.00 L 330.00 141.00 L 329.00 142.00 Z M 350.00 86.00 L 351.00 85.00 L 352.00 86.00 L 351.00 87.00 Z M 337.00 84.00 L 339.00 82.00 L 340.00 83.00 L 339.00 85.00 Z M 361.00 84.00 L 361.00 82.00 L 363.00 81.00 L 364.00 83.00 L 362.00 85.00 Z M 332.00 80.00 L 334.00 79.00 L 336.00 81.00 L 336.00 82.00 L 334.00 83.00 L 332.00 81.00 Z M 355.00 78.00 L 356.00 77.00 L 357.00 78.00 L 356.00 79.00 Z M 348.00 78.00 L 349.00 77.00 L 351.00 78.00 L 350.00 79.00 Z M 344.00 78.00 L 345.00 77.00 L 347.00 78.00 L 346.00 79.00 Z M 353.00 77.00 L 354.00 76.00 L 355.00 77.00 L 354.00 78.00 Z M 337.00 77.00 L 338.00 76.00 L 339.00 77.00 L 338.00 78.00 Z M 325.00 77.00 L 326.00 76.00 L 327.00 77.00 L 326.00 78.00 Z M 340.00 76.00 L 341.00 75.00 L 342.00 76.00 L 341.00 77.00 Z M 325.00 75.00 L 326.00 74.00 L 327.00 75.00 L 326.00 76.00 Z M 202.00 74.00 L 203.00 75.00 L 201.00 77.00 L 200.00 75.00 L 201.00 80.00 L 185.00 162.00 L 186.00 166.00 L 181.00 182.00 L 207.00 181.00 L 204.00 172.00 L 207.00 163.00 L 226.00 164.00 L 227.00 173.00 L 223.00 181.00 L 253.00 181.00 L 244.00 149.00 L 233.00 80.00 L 228.00 80.00 L 230.00 77.00 L 228.00 76.00 L 229.00 74.00 L 229.00 78.00 L 227.00 78.00 L 224.00 84.00 L 222.00 79.00 L 223.00 75.00 L 226.00 74.00 L 217.00 74.00 L 216.00 77.00 L 215.00 74.00 L 214.00 78.00 L 213.00 75.00 L 210.00 74.00 L 210.00 77.00 L 212.00 78.00 L 210.00 82.00 L 209.00 79.00 L 207.00 79.00 L 208.00 74.00 Z M 245.00 181.00 L 246.00 180.00 L 247.00 181.00 L 246.00 182.00 Z M 237.00 179.00 L 238.00 178.00 L 240.00 179.00 L 239.00 180.00 Z M 244.00 178.00 L 245.00 177.00 L 246.00 178.00 L 245.00 179.00 Z M 240.00 173.00 L 241.00 172.00 L 242.00 174.00 L 241.00 175.00 Z M 248.00 172.00 L 249.00 171.00 L 250.00 172.00 L 249.00 173.00 Z M 246.00 171.00 L 247.00 170.00 L 248.00 171.00 L 247.00 172.00 Z M 230.00 170.00 L 232.00 169.00 L 233.00 170.00 L 233.00 172.00 L 231.00 173.00 L 230.00 172.00 Z M 185.00 167.00 L 186.00 166.00 L 187.00 167.00 L 186.00 168.00 Z M 230.00 164.00 L 231.00 163.00 L 233.00 164.00 L 232.00 165.00 Z M 196.00 144.00 L 197.00 143.00 L 198.00 144.00 L 197.00 145.00 Z M 191.00 136.00 L 192.00 135.00 L 193.00 136.00 L 192.00 137.00 Z M 203.00 135.00 L 204.00 134.00 L 205.00 135.00 L 204.00 136.00 Z M 201.00 135.00 L 202.00 134.00 L 204.00 136.00 L 202.00 137.00 Z M 190.00 135.00 L 191.00 134.00 L 192.00 135.00 L 191.00 136.00 Z M 220.00 134.00 L 221.00 133.00 L 222.00 134.00 L 221.00 135.00 Z M 193.00 134.00 L 194.00 133.00 L 195.00 134.00 L 194.00 135.00 Z M 194.00 133.00 L 195.00 132.00 L 196.00 133.00 L 195.00 134.00 Z M 194.00 129.00 L 195.00 128.00 L 197.00 129.00 L 196.00 130.00 Z M 201.00 125.00 L 202.00 124.00 L 203.00 125.00 L 202.00 126.00 Z M 207.00 122.00 L 208.00 121.00 L 210.00 122.00 L 209.00 123.00 Z M 219.00 116.00 L 220.00 115.00 L 221.00 117.00 L 220.00 118.00 Z M 202.00 112.00 L 203.00 111.00 L 204.00 112.00 L 203.00 113.00 Z M 215.00 106.00 L 216.00 107.00 L 216.00 111.00 L 217.00 112.00 L 217.00 118.00 L 218.00 119.00 L 219.00 135.00 L 220.00 136.00 L 220.00 141.00 L 221.00 142.00 L 220.00 144.00 L 210.00 144.00 L 209.00 143.00 L 210.00 131.00 L 211.00 130.00 L 211.00 125.00 L 212.00 124.00 L 212.00 119.00 L 213.00 118.00 L 213.00 114.00 L 214.00 113.00 L 214.00 107.00 Z M 202.00 106.00 L 203.00 105.00 L 204.00 106.00 L 203.00 107.00 Z M 226.00 91.00 L 227.00 90.00 L 229.00 91.00 L 228.00 92.00 Z M 211.00 80.00 L 212.00 79.00 L 213.00 80.00 L 212.00 81.00 Z M 213.00 80.00 L 215.00 78.00 L 216.00 79.00 L 215.00 81.00 Z M 221.00 78.00 L 222.00 77.00 L 223.00 78.00 L 222.00 79.00 Z M 215.00 78.00 L 216.00 77.00 L 217.00 78.00 L 216.00 79.00 Z M 212.00 78.00 L 213.00 77.00 L 214.00 79.00 L 213.00 80.00 Z M 201.00 77.00 L 202.00 76.00 L 203.00 78.00 L 202.00 79.00 Z M 217.00 76.00 L 218.00 75.00 L 221.00 75.00 L 222.00 77.00 L 221.00 78.00 L 220.00 77.00 L 218.00 78.00 Z M 210.00 76.00 L 211.00 75.00 L 212.00 76.00 L 211.00 77.00 Z M 205.00 76.00 L 206.00 75.00 L 207.00 76.00 L 206.00 77.00 Z M 203.00 75.00 L 204.00 74.00 L 205.00 75.00 L 204.00 76.00 Z M 471.00 73.00 L 466.00 73.00 L 465.00 74.00 L 465.00 78.00 L 463.00 81.00 L 460.00 81.00 L 462.00 82.00 L 461.00 84.00 L 461.00 88.00 L 462.00 89.00 L 462.00 92.00 L 463.00 93.00 L 466.00 89.00 L 466.00 87.00 L 468.00 84.00 L 467.00 83.00 L 468.00 82.00 L 469.00 77.00 L 471.00 75.00 Z M 463.00 91.00 L 464.00 90.00 L 465.00 91.00 L 464.00 92.00 Z M 462.00 84.00 L 463.00 85.00 L 463.00 87.00 L 462.00 88.00 L 461.00 87.00 L 461.00 85.00 Z M 463.00 81.00 L 464.00 82.00 L 464.00 84.00 L 463.00 85.00 L 462.00 84.00 L 462.00 82.00 Z M 431.00 73.00 L 428.00 76.00 L 432.00 89.00 L 432.00 166.00 L 428.00 181.00 L 480.00 181.00 L 482.00 159.00 L 466.00 162.00 L 457.00 162.00 L 454.00 160.00 L 454.00 138.00 L 461.00 136.00 L 463.00 133.00 L 463.00 136.00 L 472.00 137.00 L 473.00 135.00 L 474.00 137.00 L 475.00 131.00 L 474.00 114.00 L 472.00 117.00 L 471.00 115.00 L 468.00 116.00 L 464.00 134.00 L 464.00 128.00 L 462.00 125.00 L 465.00 116.00 L 457.00 116.00 L 454.00 114.00 L 453.00 94.00 L 455.00 93.00 L 455.00 90.00 L 458.00 86.00 L 458.00 82.00 L 456.00 81.00 L 458.00 79.00 L 456.00 78.00 L 457.00 73.00 L 445.00 73.00 L 444.00 77.00 L 443.00 73.00 Z M 435.00 159.00 L 436.00 158.00 L 437.00 160.00 L 436.00 161.00 Z M 444.00 158.00 L 445.00 157.00 L 446.00 158.00 L 445.00 159.00 Z M 443.00 152.00 L 444.00 151.00 L 445.00 152.00 L 444.00 153.00 Z M 445.00 130.00 L 446.00 129.00 L 448.00 130.00 L 447.00 131.00 Z M 454.00 129.00 L 455.00 128.00 L 456.00 129.00 L 455.00 130.00 Z M 468.00 123.00 L 469.00 122.00 L 470.00 123.00 L 469.00 124.00 Z M 461.00 117.00 L 462.00 116.00 L 464.00 117.00 L 463.00 118.00 Z M 449.00 92.00 L 450.00 91.00 L 451.00 92.00 L 450.00 93.00 Z M 451.00 88.00 L 452.00 89.00 L 452.00 91.00 L 451.00 92.00 L 450.00 91.00 L 450.00 89.00 Z M 450.00 85.00 L 451.00 84.00 L 452.00 85.00 L 451.00 86.00 Z M 454.00 83.00 L 455.00 84.00 L 455.00 86.00 L 454.00 88.00 L 452.00 89.00 L 451.00 87.00 Z M 452.00 83.00 L 453.00 82.00 L 454.00 83.00 L 453.00 84.00 Z M 448.00 82.00 L 449.00 81.00 L 451.00 82.00 L 450.00 83.00 Z M 444.00 80.00 L 445.00 79.00 L 446.00 81.00 L 445.00 82.00 Z M 454.00 78.00 L 456.00 81.00 L 456.00 83.00 L 455.00 84.00 L 453.00 82.00 L 453.00 79.00 Z M 442.00 77.00 L 443.00 76.00 L 444.00 78.00 L 443.00 79.00 Z M 372.00 74.00 L 372.00 76.00 L 373.00 75.00 L 375.00 76.00 L 373.00 80.00 L 374.00 81.00 L 374.00 106.00 L 376.00 109.00 L 375.00 110.00 L 376.00 162.00 L 372.00 181.00 L 396.00 181.00 L 397.00 182.00 L 419.00 181.00 L 420.00 182.00 L 423.00 158.00 L 409.00 161.00 L 401.00 161.00 L 398.00 158.00 L 397.00 87.00 L 399.00 79.00 L 398.00 75.00 L 400.00 73.00 L 399.00 74.00 L 398.00 73.00 L 396.00 79.00 L 395.00 76.00 L 394.00 80.00 L 393.00 79.00 L 391.00 80.00 L 390.00 78.00 L 389.00 79.00 L 387.00 77.00 L 389.00 76.00 L 388.00 74.00 L 377.00 74.00 L 375.00 76.00 L 374.00 74.00 Z M 397.00 167.00 L 398.00 166.00 L 399.00 167.00 L 398.00 168.00 Z M 384.00 166.00 L 385.00 165.00 L 386.00 167.00 L 385.00 168.00 Z M 390.00 157.00 L 391.00 156.00 L 392.00 157.00 L 391.00 158.00 Z M 377.00 140.00 L 378.00 139.00 L 379.00 140.00 L 378.00 141.00 Z M 377.00 137.00 L 378.00 136.00 L 380.00 138.00 L 380.00 139.00 L 379.00 140.00 L 377.00 138.00 Z M 378.00 135.00 L 379.00 134.00 L 380.00 135.00 L 379.00 136.00 Z M 384.00 129.00 L 385.00 128.00 L 386.00 129.00 L 385.00 130.00 Z M 395.00 117.00 L 396.00 116.00 L 398.00 117.00 L 397.00 118.00 Z M 386.00 110.00 L 387.00 109.00 L 388.00 110.00 L 387.00 111.00 Z M 388.00 109.00 L 389.00 108.00 L 390.00 109.00 L 389.00 110.00 Z M 380.00 103.00 L 381.00 102.00 L 382.00 103.00 L 381.00 104.00 Z M 378.00 102.00 L 379.00 101.00 L 380.00 102.00 L 379.00 103.00 Z M 387.00 96.00 L 388.00 95.00 L 389.00 96.00 L 388.00 97.00 Z M 389.00 93.00 L 390.00 92.00 L 391.00 94.00 L 390.00 95.00 Z M 392.00 90.00 L 393.00 89.00 L 394.00 90.00 L 393.00 91.00 Z M 380.00 84.00 L 382.00 82.00 L 384.00 83.00 L 382.00 85.00 Z M 384.00 75.00 L 385.00 74.00 L 386.00 76.00 L 385.00 77.00 Z M 249.00 74.00 L 248.00 75.00 L 248.00 97.00 L 263.00 92.00 L 267.00 93.00 L 267.00 161.00 L 266.00 162.00 L 267.00 167.00 L 265.00 169.00 L 264.00 178.00 L 262.00 181.00 L 266.00 182.00 L 267.00 181.00 L 293.00 181.00 L 290.00 176.00 L 290.00 173.00 L 288.00 172.00 L 289.00 169.00 L 287.00 159.00 L 287.00 102.00 L 288.00 101.00 L 287.00 93.00 L 295.00 92.00 L 305.00 96.00 L 305.00 74.00 L 290.00 74.00 L 289.00 76.00 L 288.00 74.00 L 284.00 73.00 L 282.00 74.00 L 281.00 73.00 L 275.00 74.00 L 268.00 73.00 L 250.00 75.00 Z M 285.00 179.00 L 286.00 178.00 L 287.00 179.00 L 286.00 180.00 Z M 272.00 179.00 L 273.00 178.00 L 274.00 179.00 L 273.00 180.00 Z M 270.00 176.00 L 271.00 175.00 L 272.00 177.00 L 271.00 178.00 Z M 267.00 173.00 L 268.00 172.00 L 270.00 174.00 L 268.00 175.00 Z M 277.00 170.00 L 278.00 169.00 L 279.00 170.00 L 278.00 171.00 Z M 279.00 167.00 L 281.00 166.00 L 282.00 168.00 L 280.00 169.00 Z M 278.00 166.00 L 279.00 165.00 L 280.00 166.00 L 279.00 167.00 Z M 274.00 166.00 L 275.00 165.00 L 276.00 166.00 L 275.00 167.00 Z M 282.00 163.00 L 283.00 162.00 L 284.00 163.00 L 283.00 164.00 Z M 270.00 160.00 L 271.00 159.00 L 272.00 160.00 L 271.00 161.00 Z M 279.00 154.00 L 280.00 156.00 L 278.00 158.00 L 277.00 156.00 Z M 268.00 149.00 L 269.00 148.00 L 270.00 149.00 L 269.00 150.00 Z M 270.00 133.00 L 271.00 132.00 L 272.00 133.00 L 271.00 134.00 Z M 280.00 128.00 L 281.00 127.00 L 282.00 128.00 L 281.00 129.00 Z M 254.00 94.00 L 255.00 93.00 L 256.00 94.00 L 255.00 95.00 Z M 255.00 92.00 L 256.00 91.00 L 257.00 92.00 L 256.00 93.00 Z M 262.00 89.00 L 263.00 88.00 L 264.00 89.00 L 263.00 90.00 Z M 273.00 87.00 L 275.00 86.00 L 276.00 88.00 L 275.00 89.00 Z M 264.00 87.00 L 265.00 86.00 L 267.00 87.00 L 266.00 88.00 Z M 256.00 88.00 L 258.00 86.00 L 260.00 88.00 L 258.00 90.00 Z M 298.00 84.00 L 299.00 83.00 L 300.00 84.00 L 299.00 85.00 Z M 249.00 81.00 L 250.00 80.00 L 251.00 81.00 L 250.00 82.00 Z M 288.00 80.00 L 289.00 79.00 L 290.00 80.00 L 289.00 81.00 Z M 256.00 81.00 L 257.00 79.00 L 259.00 79.00 L 260.00 80.00 L 258.00 82.00 Z M 254.00 80.00 L 255.00 79.00 L 256.00 81.00 L 255.00 82.00 Z M 302.00 76.00 L 303.00 75.00 L 304.00 76.00 L 303.00 77.00 Z M 254.00 75.00 L 255.00 74.00 L 256.00 75.00 L 255.00 76.00 Z M 118.00 74.00 L 120.00 75.00 L 120.00 78.00 L 119.00 79.00 L 118.00 76.00 L 116.00 76.00 L 118.00 83.00 L 118.00 89.00 L 120.00 90.00 L 118.00 93.00 L 119.00 169.00 L 115.00 181.00 L 153.00 182.00 L 164.00 179.00 L 172.00 173.00 L 177.00 162.00 L 176.00 145.00 L 177.00 141.00 L 173.00 132.00 L 166.00 126.00 L 173.00 118.00 L 177.00 107.00 L 177.00 92.00 L 175.00 85.00 L 172.00 84.00 L 168.00 78.00 L 157.00 73.00 L 154.00 73.00 L 152.00 76.00 L 151.00 73.00 L 146.00 74.00 L 141.00 73.00 L 138.00 75.00 L 136.00 73.00 L 132.00 73.00 L 130.00 75.00 L 129.00 74.00 L 130.00 73.00 L 125.00 74.00 L 127.00 77.00 L 126.00 78.00 L 128.00 85.00 L 127.00 87.00 L 124.00 83.00 L 124.00 77.00 L 124.00 80.00 L 123.00 81.00 L 122.00 80.00 L 123.00 74.00 Z M 143.00 181.00 L 144.00 179.00 L 146.00 180.00 L 144.00 182.00 Z M 142.00 179.00 L 143.00 178.00 L 144.00 179.00 L 143.00 180.00 Z M 158.00 175.00 L 159.00 174.00 L 160.00 175.00 L 159.00 176.00 Z M 123.00 175.00 L 124.00 174.00 L 125.00 175.00 L 124.00 176.00 Z M 122.00 173.00 L 123.00 172.00 L 124.00 173.00 L 123.00 174.00 Z M 172.00 168.00 L 173.00 167.00 L 174.00 168.00 L 173.00 169.00 Z M 121.00 152.00 L 123.00 149.00 L 126.00 153.00 L 125.00 154.00 L 123.00 154.00 Z M 121.00 139.00 L 122.00 138.00 L 124.00 138.00 L 125.00 140.00 L 124.00 141.00 L 122.00 141.00 Z M 142.00 135.00 L 144.00 136.00 L 149.00 136.00 L 151.00 137.00 L 156.00 144.00 L 156.00 154.00 L 155.00 155.00 L 155.00 157.00 L 150.00 163.00 L 147.00 163.00 L 146.00 164.00 L 141.00 164.00 L 139.00 161.00 L 140.00 159.00 L 139.00 157.00 L 139.00 139.00 Z M 133.00 117.00 L 134.00 116.00 L 135.00 117.00 L 134.00 118.00 Z M 134.00 115.00 L 135.00 114.00 L 136.00 115.00 L 135.00 116.00 Z M 119.00 112.00 L 120.00 111.00 L 121.00 112.00 L 120.00 113.00 Z M 121.00 109.00 L 122.00 108.00 L 123.00 109.00 L 122.00 110.00 Z M 119.00 107.00 L 120.00 106.00 L 121.00 107.00 L 120.00 108.00 Z M 127.00 105.00 L 128.00 104.00 L 129.00 105.00 L 128.00 106.00 Z M 123.00 105.00 L 124.00 104.00 L 125.00 106.00 L 124.00 107.00 Z M 127.00 103.00 L 128.00 101.00 L 130.00 102.00 L 128.00 104.00 Z M 119.00 99.00 L 120.00 98.00 L 121.00 99.00 L 120.00 100.00 Z M 120.00 98.00 L 120.00 96.00 L 122.00 95.00 L 123.00 97.00 L 121.00 99.00 Z M 123.00 94.00 L 124.00 93.00 L 125.00 94.00 L 124.00 95.00 Z M 134.00 93.00 L 136.00 92.00 L 137.00 93.00 L 137.00 95.00 L 136.00 96.00 L 134.00 94.00 Z M 137.00 92.00 L 138.00 91.00 L 139.00 92.00 L 138.00 93.00 Z M 160.00 91.00 L 162.00 90.00 L 163.00 92.00 L 161.00 93.00 Z M 148.00 90.00 L 149.00 92.00 L 151.00 93.00 L 155.00 98.00 L 155.00 100.00 L 156.00 101.00 L 156.00 106.00 L 155.00 107.00 L 155.00 110.00 L 150.00 115.00 L 148.00 115.00 L 147.00 116.00 L 141.00 116.00 L 140.00 115.00 L 140.00 106.00 L 139.00 105.00 L 140.00 104.00 L 140.00 93.00 L 141.00 92.00 L 144.00 92.00 L 145.00 91.00 L 146.00 92.00 L 146.00 91.00 Z M 126.00 90.00 L 127.00 89.00 L 128.00 90.00 L 127.00 91.00 Z M 167.00 89.00 L 168.00 88.00 L 169.00 89.00 L 168.00 90.00 Z M 132.00 89.00 L 133.00 88.00 L 134.00 90.00 L 133.00 91.00 Z M 125.00 89.00 L 126.00 88.00 L 127.00 89.00 L 126.00 90.00 Z M 153.00 88.00 L 154.00 87.00 L 155.00 89.00 L 154.00 90.00 Z M 123.00 87.00 L 124.00 88.00 L 123.00 90.00 L 124.00 91.00 L 123.00 92.00 L 124.00 93.00 L 123.00 94.00 L 121.00 94.00 L 119.00 92.00 L 119.00 91.00 Z M 167.00 87.00 L 168.00 86.00 L 170.00 87.00 L 169.00 88.00 Z M 144.00 87.00 L 145.00 86.00 L 146.00 87.00 L 145.00 88.00 Z M 132.00 87.00 L 133.00 86.00 L 134.00 87.00 L 133.00 88.00 Z M 130.00 87.00 L 131.00 86.00 L 132.00 87.00 L 131.00 88.00 Z M 129.00 85.00 L 131.00 88.00 L 131.00 89.00 L 129.00 91.00 L 126.00 88.00 Z M 121.00 86.00 L 122.00 85.00 L 123.00 86.00 L 122.00 87.00 Z M 166.00 85.00 L 167.00 84.00 L 168.00 86.00 L 167.00 87.00 Z M 160.00 83.00 L 161.00 82.00 L 162.00 84.00 L 161.00 85.00 Z M 169.00 82.00 L 170.00 81.00 L 171.00 82.00 L 170.00 83.00 Z M 120.00 80.00 L 122.00 80.00 L 123.00 81.00 L 123.00 84.00 L 121.00 86.00 L 120.00 85.00 L 121.00 83.00 L 119.00 81.00 Z M 164.00 79.00 L 166.00 81.00 L 166.00 83.00 L 164.00 85.00 L 162.00 83.00 L 164.00 82.00 L 163.00 81.00 Z M 147.00 79.00 L 148.00 78.00 L 149.00 79.00 L 148.00 80.00 Z M 162.00 78.00 L 163.00 77.00 L 164.00 78.00 L 163.00 79.00 Z M 140.00 78.00 L 141.00 77.00 L 142.00 78.00 L 141.00 79.00 Z M 163.00 77.00 L 164.00 76.00 L 165.00 77.00 L 164.00 78.00 Z M 133.00 77.00 L 134.00 76.00 L 136.00 78.00 L 134.00 79.00 Z M 130.00 76.00 L 132.00 80.00 L 131.00 82.00 L 129.00 83.00 L 128.00 82.00 L 129.00 81.00 L 128.00 79.00 Z M 158.00 76.00 L 159.00 75.00 L 160.00 76.00 L 159.00 77.00 Z M 153.00 75.00 L 154.00 76.00 L 154.00 78.00 L 153.00 79.00 L 152.00 78.00 L 152.00 76.00 Z M 130.00 76.00 L 131.00 75.00 L 132.00 76.00 L 131.00 77.00 Z M 149.00 75.00 L 150.00 74.00 L 151.00 75.00 L 150.00 76.00 Z M 137.00 74.00 L 139.00 77.00 L 137.00 79.00 L 135.00 76.00 Z M 131.00 75.00 L 132.00 74.00 L 134.00 74.00 L 135.00 75.00 L 134.00 76.00 L 132.00 76.00 Z M 145.00 73.00 L 146.00 75.00 L 143.00 79.00 L 142.00 77.00 Z M 134.00 74.00 L 135.00 73.00 L 137.00 74.00 L 136.00 75.00 Z" fill="#FFFFFF" fill-rule="evenodd"/>
</svg>
